<svg width="18" height="21" viewBox="0 0 18 21" fill="none" xmlns="http://www.w3.org/2000/svg">
<path d="M15.1334 3.3932C14.2889 2.59319 13.3445 1.97097 12.3 1.52653C11.2556 1.08208 10.1556 0.859861 9.00004 0.859861C7.84449 0.859861 6.73337 1.08208 5.66671 1.52653C4.60004 1.97097 3.66671 2.59319 2.86671 3.3932C2.06671 4.1932 1.44449 5.12653 1.00004 6.1932C0.555596 7.25986 0.333374 8.37097 0.333374 9.52653C0.333374 10.6821 0.555596 11.7821 1.00004 12.8265C1.44449 13.871 2.06671 14.8154 2.86671 15.6599L7.46671 20.2599C7.86671 20.6599 8.36671 20.8599 8.96671 20.8599C9.56671 20.8599 10.0889 20.6599 10.5334 20.2599L15.1334 15.6599C15.9334 14.8154 16.5556 13.871 17 12.8265C17.4445 11.7821 17.6667 10.6821 17.6667 9.52653C17.6667 8.37097 17.4445 7.25986 17 6.1932C16.5556 5.12653 15.9334 4.1932 15.1334 3.3932ZM14.2667 14.7932L9.66671 19.3932C9.48893 19.571 9.26671 19.6599 9.00004 19.6599C8.73337 19.6599 8.48893 19.571 8.26671 19.3932L3.66671 14.7932C2.9556 14.0821 2.42226 13.271 2.06671 12.3599C1.71115 11.4488 1.53337 10.4932 1.53337 9.4932C1.53337 8.4932 1.71115 7.53764 2.06671 6.62653C2.42226 5.71542 2.9556 4.91542 3.66671 4.22653C4.37782 3.53764 5.18893 3.00431 6.10004 2.62653C7.01115 2.24875 7.96671 2.05986 8.96671 2.05986C9.96671 2.05986 10.9223 2.24875 11.8334 2.62653C12.7445 3.00431 13.5556 3.52653 14.2667 4.1932C15.2445 5.17097 15.9 6.30431 16.2334 7.5932C16.5667 8.88208 16.5667 10.171 16.2334 11.4599C15.9 12.7488 15.2445 13.8599 14.2667 14.7932ZM9.00004 6.3932C8.1556 6.3932 7.42226 6.70431 6.80004 7.32653C6.17782 7.94875 5.86671 8.68209 5.86671 9.52653C5.86671 10.371 6.17782 11.0932 6.80004 11.6932C7.42226 12.2932 8.1556 12.5932 9.00004 12.5932C9.84449 12.5932 10.5667 12.2932 11.1667 11.6932C11.7667 11.0932 12.0667 10.371 12.0667 9.52653C12.0667 8.68209 11.7667 7.94875 11.1667 7.32653C10.5667 6.70431 9.84449 6.3932 9.00004 6.3932ZM9.00004 11.4599C8.46671 11.4599 8.01115 11.271 7.63337 10.8932C7.2556 10.5154 7.06671 10.0599 7.06671 9.52653C7.06671 8.9932 7.2556 8.53764 7.63337 8.15986C8.01115 7.78208 8.46671 7.5932 9.00004 7.5932C9.53337 7.5932 9.98893 7.78208 10.3667 8.15986C10.7445 8.53764 10.9334 8.9932 10.9334 9.52653C10.9334 10.0599 10.7445 10.5154 10.3667 10.8932C9.98893 11.271 9.53337 11.4599 9.00004 11.4599Z" fill="white"/>
</svg>
