<svg width="17" height="12" viewBox="0 0 17 12" fill="none" xmlns="http://www.w3.org/2000/svg">
<path d="M14.5066 3.07322H7.46665C7.11109 3.07322 6.77331 3.17989 6.45331 3.39322C6.3822 2.85989 6.15998 2.42433 5.78665 2.08656C5.41331 1.74878 4.97776 1.57989 4.47998 1.57989C4.08887 1.57989 3.73331 1.66878 3.41331 1.84656V1.04656C3.41331 0.904333 3.36887 0.788778 3.27998 0.699889C3.19109 0.611 3.07554 0.566556 2.93331 0.566556H0.95998C0.817758 0.566556 0.702203 0.611 0.613314 0.699889C0.524425 0.788778 0.47998 0.904333 0.47998 1.04656V11.0732C0.47998 11.2154 0.524425 11.331 0.613314 11.4199C0.702203 11.5088 0.817758 11.5532 0.95998 11.5532H2.93331C3.07554 11.5532 3.19109 11.5088 3.27998 11.4199C3.36887 11.331 3.41331 11.2154 3.41331 11.0732V9.52656H13.5466V11.0732C13.5466 11.2154 13.5911 11.331 13.68 11.4199C13.7689 11.5088 13.8844 11.5532 14.0266 11.5532H16C16.1422 11.5532 16.2578 11.5088 16.3466 11.4199C16.4355 11.331 16.48 11.2154 16.48 11.0732V5.04656C16.48 4.51322 16.2844 4.051 15.8933 3.65989C15.5022 3.26878 15.04 3.07322 14.5066 3.07322ZM4.47998 2.48656C4.76442 2.48656 5.00443 2.59322 5.19998 2.80656C5.39554 3.01989 5.49331 3.26878 5.49331 3.55322C5.49331 3.83767 5.39554 4.07767 5.19998 4.27322C5.00443 4.46878 4.76442 4.56656 4.47998 4.56656C4.19554 4.56656 3.94665 4.46878 3.73331 4.27322C3.51998 4.07767 3.41331 3.83767 3.41331 3.55322C3.41331 3.26878 3.51998 3.01989 3.73331 2.80656C3.94665 2.59322 4.19554 2.48656 4.47998 2.48656ZM3.41331 5.20656C3.73331 5.41989 4.07998 5.52656 4.45331 5.52656C4.82665 5.52656 5.17331 5.41989 5.49331 5.20656V6.59322H3.41331V5.20656ZM15.52 10.5932H14.4533V9.04656C14.4533 8.93989 14.4089 8.84211 14.32 8.75322C14.2311 8.66433 14.1333 8.61989 14.0266 8.61989H2.93331C2.82665 8.61989 2.72887 8.66433 2.63998 8.75322C2.55109 8.84211 2.50665 8.93989 2.50665 9.04656V10.5932H1.43998V1.52656H2.50665V7.07322C2.50665 7.17989 2.55109 7.28656 2.63998 7.39322C2.72887 7.49989 2.82665 7.55322 2.93331 7.55322H15.52V10.5932ZM15.52 6.59322H6.45331V5.04656C6.45331 4.76211 6.55109 4.52211 6.74665 4.32656C6.9422 4.131 7.1822 4.03322 7.46665 4.03322H14.5066C14.7911 4.03322 15.0311 4.131 15.2266 4.32656C15.4222 4.52211 15.52 4.76211 15.52 5.04656V6.59322Z" fill="white"/>
</svg>
